# xmcd CD database file
#
# Track frame offsets:
#	150
#	32887
#	55132
#	76321
#	95633
#	127713
#	150572
#	165465
#	189670
#
# Disc length: 2959 seconds
#
# Revision: 0
# Processed by: cddbd v1.5.2PL0 Copyright (c) Steve Scherf et al.
# Submitted via: CDex 1.51
#
DISCID=660b8d09
DTITLE=Silvia Bolognesi - Introducing Open Combo
DYEAR=2004
DGENRE=Jazz
TTITLE0=Tempo Permettendo
TTITLE1=BaDaGio
TTITLE2=Corsi e Ricorsi
TTITLE3=The Alien in a Wedding Dress
TTITLE4=Il Guerriero e la Civetta
TTITLE5=Intollerina
TTITLE6=Lo Stento
TTITLE7=Moaning Rox
TTITLE8=Juniper
EXTD=YEAR: 2004
EXTT0=
EXTT1=
EXTT2=
EXTT3=
EXTT4=
EXTT5=
EXTT6=
EXTT7=
EXTT8=
PLAYORDER=
